<svg width="11" height="11" viewBox="0 0 11 11" fill="none" xmlns="http://www.w3.org/2000/svg">
<path d="M6.08696 1.58696C6.08696 1.43129 6.02512 1.28199 5.91504 1.17192C5.80497 1.06184 5.65567 1 5.5 1C5.34433 1 5.19503 1.06184 5.08496 1.17192C4.97488 1.28199 4.91304 1.43129 4.91304 1.58696V4.91304H1.58696C1.43129 4.91304 1.28199 4.97488 1.17192 5.08496C1.06184 5.19503 1 5.34433 1 5.5C1 5.65567 1.06184 5.80497 1.17192 5.91504C1.28199 6.02512 1.43129 6.08696 1.58696 6.08696H4.91304V9.41304C4.91304 9.56871 4.97488 9.71801 5.08496 9.82808C5.19503 9.93816 5.34433 10 5.5 10C5.65567 10 5.80497 9.93816 5.91504 9.82808C6.02512 9.71801 6.08696 9.56871 6.08696 9.41304V6.08696H9.41304C9.56871 6.08696 9.71801 6.02512 9.82808 5.91504C9.93816 5.80497 10 5.65567 10 5.5C10 5.34433 9.93816 5.19503 9.82808 5.08496C9.71801 4.97488 9.56871 4.91304 9.41304 4.91304H6.08696V1.58696Z" fill="white" stroke="white"/>
</svg>
