<svg width="16" height="14" viewBox="0 0 16 14" fill="none" xmlns="http://www.w3.org/2000/svg">
<path d="M15 2H11.35L10.82 0.640002C10.7475 0.452066 10.6199 0.290413 10.454 0.176214C10.288 0.0620161 10.0914 0.000597153 9.89 2.09592e-06H6.11C5.90771 -0.000411977 5.71004 0.0605369 5.54311 0.174801C5.37618 0.289065 5.24783 0.451271 5.175 0.640002L4.65 2H1C0.734784 2 0.48043 2.10536 0.292893 2.2929C0.105357 2.48043 0 2.73479 0 3V13C0 13.2652 0.105357 13.5196 0.292893 13.7071C0.48043 13.8946 0.734784 14 1 14H15C15.2652 14 15.5196 13.8946 15.7071 13.7071C15.8946 13.5196 16 13.2652 16 13V3C16 2.73479 15.8946 2.48043 15.7071 2.2929C15.5196 2.10536 15.2652 2 15 2ZM15 13H1V3H5.335L6.11 1H9.89L10.665 3H15V13Z" fill="black"/>
<path d="M3.5 7.5C3.5 8.39002 3.76392 9.26004 4.25839 10.0001C4.75285 10.7401 5.45566 11.3169 6.27792 11.6575C7.10019 11.9981 8.00499 12.0872 8.87791 11.9135C9.75082 11.7399 10.5526 11.3113 11.182 10.682C11.8113 10.0526 12.2399 9.25082 12.4135 8.37791C12.5872 7.50499 12.4981 6.60019 12.1575 5.77792C11.8169 4.95566 11.2401 4.25285 10.5001 3.75839C9.76004 3.26392 8.89002 3 8 3C6.80653 3 5.66193 3.47411 4.81802 4.31802C3.97411 5.16193 3.5 6.30653 3.5 7.5ZM11.7 7.5C11.7 8.23179 11.483 8.94715 11.0764 9.55561C10.6699 10.1641 10.092 10.6383 9.41593 10.9184C8.73984 11.1984 7.9959 11.2717 7.27817 11.1289C6.56044 10.9861 5.90116 10.6337 5.38371 10.1163C4.86625 9.59884 4.51386 8.93956 4.37109 8.22183C4.22833 7.5041 4.3016 6.76016 4.58165 6.08407C4.86169 5.40798 5.33593 4.83012 5.94439 4.42356C6.55285 4.017 7.26821 3.8 8 3.8C8.9809 3.80132 9.92124 4.19157 10.6148 4.88517C11.3084 5.57876 11.6987 6.51911 11.7 7.5Z" fill="black"/>
<path d="M3.68506 4.41489C3.68506 4.30881 3.64292 4.20706 3.5679 4.13205C3.49289 4.05704 3.39115 4.01489 3.28506 4.01489H2.08506C1.97897 4.01489 1.87723 4.05704 1.80222 4.13205C1.7272 4.20706 1.68506 4.30881 1.68506 4.41489C1.68506 4.52098 1.7272 4.62272 1.80222 4.69774C1.87723 4.77275 1.97897 4.81489 2.08506 4.81489H3.28506C3.39115 4.81489 3.49289 4.77275 3.5679 4.69774C3.64292 4.62272 3.68506 4.52098 3.68506 4.41489Z" fill="black"/>
<path d="M5.16999 7.49994C5.17562 8.02728 5.33085 8.54218 5.61764 8.98475C5.90442 9.42732 6.31097 9.77937 6.78999 9.99994L7.21499 9.31494C6.92869 9.21906 6.66781 9.0596 6.45192 8.84852C6.23602 8.63743 6.07073 8.38021 5.96842 8.09614C5.86612 7.81206 5.82946 7.50851 5.86119 7.20825C5.89293 6.90799 5.99223 6.61881 6.15167 6.3624C6.3111 6.10599 6.52652 5.889 6.78176 5.72772C7.03701 5.56643 7.32547 5.46503 7.62549 5.43112C7.92551 5.39721 8.22932 5.43167 8.51413 5.53191C8.79894 5.63216 9.05735 5.79559 9.26999 6.00994L9.69999 5.31994C9.29066 4.9883 8.79552 4.77979 8.27225 4.7187C7.74898 4.65762 7.21913 4.74648 6.74441 4.97493C6.2697 5.20338 5.86967 5.56201 5.59093 6.00905C5.31219 6.45609 5.16621 6.97313 5.16999 7.49994V7.49994Z" fill="black"/>
</svg>
