<svg width="17" height="14" viewBox="0 0 17 14" fill="none" xmlns="http://www.w3.org/2000/svg">
<g clip-path="url(#clip0_0_3305)">
<path d="M8.42411 10.5L9.52455 9.34659L8.08259 7.83523L6.98214 8.98864V9.54545H7.89286V10.5H8.42411ZM12.5982 3.34091C12.497 3.23485 12.3927 3.23816 12.2852 3.35085L8.96484 6.83097C8.85733 6.94366 8.85417 7.05303 8.95536 7.15909C9.05655 7.26515 9.1609 7.26184 9.26842 7.14915L12.5887 3.66903C12.6962 3.55634 12.6994 3.44697 12.5982 3.34091ZM13.3571 9.24716V11.1364C13.3571 11.9252 13.0899 12.5997 12.5555 13.1598C12.0211 13.7199 11.3776 14 10.625 14H2.73214C1.97954 14 1.33603 13.7199 0.801618 13.1598C0.267206 12.5997 0 11.9252 0 11.1364V2.86364C0 2.07481 0.267206 1.40033 0.801618 0.840199C1.33603 0.280066 1.97954 0 2.73214 0H10.625C11.0234 0 11.3934 0.0828599 11.7349 0.24858C11.8298 0.294981 11.8867 0.371212 11.9057 0.477273C11.9247 0.589962 11.8962 0.68608 11.8203 0.765625L11.3555 1.25284C11.2669 1.34564 11.1657 1.37216 11.0519 1.33239C10.9064 1.29261 10.7641 1.27273 10.625 1.27273H2.73214C2.31473 1.27273 1.9574 1.4285 1.66016 1.74006C1.36291 2.05161 1.21429 2.42614 1.21429 2.86364V11.1364C1.21429 11.5739 1.36291 11.9484 1.66016 12.2599C1.9574 12.5715 2.31473 12.7273 2.73214 12.7273H10.625C11.0424 12.7273 11.3997 12.5715 11.697 12.2599C11.9942 11.9484 12.1429 11.5739 12.1429 11.1364V9.88352C12.1429 9.79735 12.1713 9.72443 12.2282 9.66477L12.8354 9.02841C12.9302 8.92898 13.0409 8.90578 13.1674 8.95881C13.2939 9.01184 13.3571 9.10795 13.3571 9.24716ZM12.4464 1.90909L15.1786 4.77273L8.80357 11.4545H6.07143V8.59091L12.4464 1.90909ZM16.6585 3.22159L15.7857 4.13636L13.0536 1.27273L13.9263 0.357955C14.1034 0.172348 14.3185 0.0795455 14.5714 0.0795455C14.8244 0.0795455 15.0394 0.172348 15.2165 0.357955L16.6585 1.86932C16.8356 2.05492 16.9241 2.2803 16.9241 2.54545C16.9241 2.81061 16.8356 3.03598 16.6585 3.22159Z" fill="white"/>
</g>
<defs>
<clipPath id="clip0_0_3305">
<rect width="17" height="14" fill="white"/>
</clipPath>
</defs>
</svg>
