<svg width="23" height="16" viewBox="0 0 23 16" fill="none" xmlns="http://www.w3.org/2000/svg">
<path d="M20.0721 3.08542L11.5788 9.33625L3.08542 3.08542M2.08333 1.01625C1.79602 1.01625 1.52047 1.13039 1.3173 1.33355C1.11414 1.53672 1 1.81227 1 2.09958V14.3467C1 14.634 1.11414 14.9095 1.3173 15.1127C1.52047 15.3159 1.79602 15.43 2.08333 15.43H21.0742C21.3615 15.43 21.637 15.3159 21.8402 15.1127C22.0434 14.9095 22.1575 14.634 22.1575 14.3467V2.08333C22.1575 1.79602 22.0434 1.52047 21.8402 1.3173C21.637 1.11414 21.3615 1 21.0742 1H2.08333V1.01625Z" stroke="#8B8A8A" stroke-linecap="round" stroke-linejoin="round"/>
</svg>
